<?xml version="1.0" standalone="no"?>
<!DOCTYPE svg PUBLIC "-//W3C//DTD SVG 20010904//EN"
 "http://www.w3.org/TR/2001/REC-SVG-20010904/DTD/svg10.dtd">
<svg version="1.0" xmlns="http://www.w3.org/2000/svg"
 width="512.000000pt" height="512.000000pt" viewBox="0 0 512.000000 512.000000"
 preserveAspectRatio="xMidYMid meet">

<g transform="translate(0.000000,512.000000) scale(0.100000,-0.100000)"
fill="#000000" stroke="none">
<path d="M1323 4945 c-175 -47 -317 -195 -352 -367 -8 -37 -11 -364 -9 -1065
3 -1004 3 -1012 24 -1039 49 -66 58 -69 264 -72 l189 -3 3 -269 c3 -253 4
-270 24 -296 11 -15 33 -37 48 -48 27 -21 33 -21 1046 -21 1013 0 1019 0 1046
21 66 49 69 58 72 264 l3 190 -585 2 c-575 3 -585 3 -613 24 -37 28 -73 81
-73 110 l0 24 824 2 c815 3 825 3 852 24 15 11 37 33 48 48 21 27 21 35 24
1039 2 701 -1 1028 -9 1065 -36 174 -178 321 -356 367 -83 22 -2390 21 -2470
0z"/>
<path d="M255 4306 c-41 -18 -83 -69 -90 -109 -3 -18 -5 -262 -3 -544 3 -499
4 -512 24 -539 50 -68 55 -69 283 -69 l207 0 62 40 62 40 0 188 c0 103 -2 187
-4 187 -3 0 -53 -31 -113 -70 -95 -61 -114 -70 -155 -70 l-48 0 0 320 0 320
53 0 c29 0 61 -6 72 -14 11 -7 59 -39 108 -70 l87 -56 0 190 0 190 -57 37 -56
38 -201 2 c-152 2 -208 -1 -231 -11z"/>
<path d="M4415 4300 c-22 -11 -53 -30 -68 -42 l-28 -23 3 -187 3 -186 105 69
c96 63 109 69 158 69 l52 0 0 -320 0 -320 -47 0 c-40 0 -60 9 -155 70 -60 39
-111 70 -113 70 -3 0 -5 -84 -5 -187 l0 -188 62 -40 62 -40 207 0 c228 0 233
1 283 69 21 27 21 38 21 566 0 528 0 539 -21 566 -50 67 -56 69 -277 72 -186
2 -205 1 -242 -18z"/>
<path d="M1922 1411 c3 -207 6 -216 72 -265 27 -21 38 -21 566 -21 528 0 539
0 566 21 66 49 69 58 72 265 l3 189 -641 0 -641 0 3 -189z"/>
<path d="M2080 785 c0 -128 4 -184 14 -208 8 -18 99 -116 202 -219 271 -267
257 -267 526 -1 103 102 194 201 203 219 12 25 15 70 15 208 l0 176 -480 0
-480 0 0 -175z"/>
</g>
</svg>
