<?xml version="1.0" standalone="no"?>
<!DOCTYPE svg PUBLIC "-//W3C//DTD SVG 20010904//EN"
 "http://www.w3.org/TR/2001/REC-SVG-20010904/DTD/svg10.dtd">
<svg version="1.0" xmlns="http://www.w3.org/2000/svg"
 width="512.000000pt" height="512.000000pt" viewBox="0 0 512.000000 512.000000"
 preserveAspectRatio="xMidYMid meet">

<g transform="translate(0.000000,512.000000) scale(0.100000,-0.100000)"
fill="#000000" stroke="none">
<path d="M3373 4839 c-70 -27 -146 -97 -180 -167 -25 -50 -28 -68 -28 -152 0
-83 3 -101 27 -145 35 -68 97 -128 166 -162 l57 -28 540 -5 c397 -4 546 -8
561 -17 42 -24 83 -81 89 -126 10 -66 -29 -145 -90 -180 -14 -8 -125 -14 -345
-17 l-325 -5 -56 -26 c-229 -107 -274 -396 -89 -562 97 -88 93 -87 633 -87
470 0 473 0 517 -22 50 -26 86 -73 96 -125 15 -81 -49 -177 -127 -189 l-39 -7
0 -83 0 -84 35 0 c100 0 214 80 267 188 30 60 33 75 32 152 0 63 -6 97 -22
132 -24 54 -82 122 -132 153 -79 49 -76 49 -602 55 -482 5 -497 6 -524 26
-107 79 -103 224 7 289 32 19 57 20 359 25 l325 5 57 28 c127 62 208 204 194
338 -12 118 -89 227 -196 278 l-55 26 -540 5 c-397 4 -546 8 -561 17 -32 18
-83 80 -90 109 -19 76 25 172 92 200 28 12 176 14 864 14 l830 0 0 85 0 85
-847 -1 c-823 0 -850 -1 -900 -20z"/>
<path d="M0 2905 l0 -85 281 0 280 0 35 76 c19 41 34 79 34 85 0 5 -124 9
-315 9 l-315 0 0 -85z"/>
<path d="M667 2636 c-86 -195 -157 -364 -157 -376 0 -43 31 -88 74 -110 41
-20 56 -20 497 -18 l454 3 0 425 0 425 -355 3 -356 2 -157 -354z m523 71 c51
-27 90 -90 90 -147 0 -57 -39 -120 -90 -147 -55 -29 -105 -29 -161 0 -119 63
-118 234 1 295 56 28 105 28 160 -1z"/>
<path d="M1710 2560 l0 -430 680 0 680 0 0 430 0 430 -680 0 -680 0 0 -430z"/>
<path d="M3240 2560 c0 -192 2 -350 5 -350 3 0 40 17 83 39 93 46 205 85 327
113 73 16 138 21 353 25 l262 5 0 168 0 168 -262 5 c-334 6 -446 29 -667 133
-51 24 -95 44 -97 44 -2 0 -4 -157 -4 -350z"/>
<path d="M4440 2660 c0 -49 4 -70 13 -70 6 0 44 8 82 18 l70 18 3 52 3 52 -85
0 -86 0 0 -70z"/>
<path d="M1050 1944 c-267 -70 -450 -306 -450 -581 l0 -83 85 0 85 0 0 85 0
85 85 0 85 0 0 -85 0 -85 85 0 85 0 0 85 0 85 85 0 85 0 0 -85 0 -85 85 0 85
0 0 85 0 85 85 0 85 0 0 -85 0 -85 85 0 85 0 0 85 0 85 85 0 85 0 0 -85 0 -85
85 0 85 0 0 80 c0 107 -14 169 -62 269 -74 156 -239 286 -406 320 -81 17 -544
13 -612 -5z"/>
<path d="M369 1081 c-17 -18 -29 -40 -29 -56 0 -16 12 -38 29 -56 l29 -29 969
0 c1024 1 986 -1 1011 47 19 35 14 63 -17 94 l-29 29 -967 0 -967 0 -29 -29z"/>
<path d="M29 741 l-29 -29 0 -202 c0 -200 0 -201 25 -225 l24 -25 1316 0 1316
0 24 25 c25 24 25 25 25 225 l0 202 -29 29 -29 29 -1307 0 -1307 0 -29 -29z"/>
</g>
</svg>
