<?xml version="1.0" standalone="no"?>
<!DOCTYPE svg PUBLIC "-//W3C//DTD SVG 20010904//EN"
 "http://www.w3.org/TR/2001/REC-SVG-20010904/DTD/svg10.dtd">
<svg version="1.0" xmlns="http://www.w3.org/2000/svg"
 width="512.000000pt" height="512.000000pt" viewBox="0 0 512.000000 512.000000"
 preserveAspectRatio="xMidYMid meet">

<g transform="translate(0.000000,512.000000) scale(0.100000,-0.100000)"
fill="#000000" stroke="none">
<path d="M2365 5063 c-334 -21 -642 -101 -951 -247 -83 -40 -113 -59 -108 -68
4 -7 29 -45 56 -85 26 -40 48 -76 48 -80 0 -4 -33 -29 -72 -55 l-72 -47 -54
82 c-30 45 -58 86 -62 91 -5 4 -36 -11 -70 -34 -224 -152 -461 -388 -633 -631
l-47 -66 90 -59 c49 -33 90 -62 90 -67 0 -19 -94 -146 -104 -140 -6 4 -43 28
-83 55 -40 26 -76 48 -81 48 -11 0 -109 -205 -151 -314 -81 -210 -136 -461
-156 -713 l-7 -83 136 0 136 0 0 -90 0 -90 -136 0 -136 0 7 -83 c20 -252 75
-503 156 -713 42 -109 140 -314 151 -314 5 0 41 22 81 48 40 27 77 51 83 55
10 6 104 -121 104 -140 0 -5 -41 -34 -90 -67 l-90 -59 47 -66 c172 -243 409
-479 633 -631 34 -23 65 -38 70 -34 4 5 32 46 62 91 l54 82 72 -47 c39 -26 72
-51 72 -55 0 -4 -22 -40 -48 -80 -27 -40 -52 -77 -56 -84 -7 -13 51 -46 206
-114 247 -108 590 -190 838 -200 l65 -3 3 87 3 87 89 0 90 0 0 -85 0 -85 58 0
c143 0 428 53 627 117 162 52 425 169 425 189 0 2 -25 42 -57 89 -31 47 -54
87 -52 89 2 2 35 24 73 49 l70 46 59 -89 c33 -50 65 -90 71 -90 19 0 218 155
328 253 196 177 391 429 518 669 l34 66 79 -40 c44 -21 80 -38 82 -36 24 24
141 330 178 465 l26 93 -407 0 -407 -1 -50 -77 c-61 -95 -226 -261 -322 -325
-222 -147 -449 -217 -707 -217 -339 0 -625 114 -863 343 -102 99 -151 158
-213 261 -57 94 -61 126 -22 166 l30 30 469 0 468 0 225 225 225 225 -225 225
-225 225 -468 0 -469 0 -29 29 c-16 16 -29 40 -29 53 0 55 102 210 220 332
247 258 548 386 906 386 258 0 485 -70 707 -217 96 -64 261 -230 322 -325 l50
-77 407 -1 407 0 -26 93 c-37 135 -154 441 -178 465 -2 2 -38 -15 -82 -36
l-79 -40 -34 66 c-127 240 -322 492 -518 669 -110 98 -309 253 -328 253 -6 0
-38 -40 -71 -90 l-59 -89 -70 46 c-38 25 -71 47 -73 49 -2 2 21 42 52 89 32
47 57 87 57 89 0 20 -263 137 -425 189 -199 64 -484 117 -627 117 l-58 0 0
-85 0 -85 -90 0 -90 0 0 84 c0 47 -3 86 -7 88 -5 2 -26 2 -48 1z m379 -639
c226 -29 439 -96 634 -199 97 -52 252 -150 252 -160 0 -3 -23 -37 -52 -75
l-52 -69 -62 44 c-192 137 -466 243 -724 280 -107 15 -305 20 -372 9 l-38 -7
0 -326 c0 -398 5 -381 -115 -421 -44 -15 -117 -46 -162 -69 -132 -66 -109 -78
-389 201 l-243 241 -102 -99 c-55 -54 -105 -107 -111 -118 -9 -16 22 -51 225
-255 147 -147 238 -246 242 -263 5 -20 -5 -51 -43 -130 -28 -57 -58 -130 -68
-162 -9 -33 -27 -70 -40 -83 l-23 -23 -345 0 -344 0 -4 -90 c-1 -50 -1 -131 0
-180 l4 -90 344 0 345 0 23 -23 c13 -13 31 -50 40 -83 10 -32 40 -105 68 -162
38 -79 48 -110 43 -130 -4 -17 -95 -116 -242 -263 -203 -204 -234 -239 -225
-255 6 -11 56 -64 111 -118 l102 -99 243 241 c280 279 257 267 389 201 45 -23
118 -54 162 -69 120 -40 115 -23 115 -421 l0 -326 38 -7 c67 -11 265 -6 372 9
258 37 532 143 724 280 l62 44 52 -69 c29 -38 52 -72 52 -75 0 -10 -155 -108
-252 -160 -406 -214 -885 -270 -1338 -155 -588 149 -1091 602 -1295 1165 -81
224 -116 420 -116 655 0 506 191 969 547 1325 414 413 997 614 1568 539z
m-115 -1629 c90 -45 141 -129 141 -235 0 -151 -110 -262 -260 -264 -151 -2
-270 114 -270 264 0 200 209 327 389 235z"/>
<path d="M2060 4201 c-137 -37 -280 -98 -414 -176 -36 -22 -66 -42 -66 -45 0
-3 87 -92 193 -198 l193 -193 65 29 c35 16 76 34 92 40 l27 12 0 275 c0 214
-3 275 -12 274 -7 0 -42 -9 -78 -18z"/>
<path d="M1042 3423 c-78 -133 -135 -269 -177 -421 l-23 -82 279 2 280 3 34
85 c19 47 35 90 35 95 0 11 -371 385 -381 385 -4 0 -25 -30 -47 -67z"/>
<path d="M865 2118 c34 -124 98 -282 156 -383 28 -50 55 -94 60 -100 10 -10
389 361 389 380 0 5 -16 48 -35 95 l-34 85 -280 3 -279 2 23 -82z"/>
<path d="M1770 1335 c-107 -107 -192 -196 -190 -198 39 -34 243 -138 344 -174
64 -24 200 -62 219 -63 4 0 7 124 7 275 l0 275 -27 12 c-16 6 -57 24 -92 39
-35 16 -64 29 -65 29 -1 0 -89 -88 -196 -195z"/>
<path d="M2451 2624 c-25 -20 -31 -34 -31 -64 0 -30 6 -44 31 -64 33 -28 59
-32 92 -14 33 17 46 39 46 78 0 39 -13 61 -46 78 -33 18 -59 14 -92 -14z"/>
<path d="M3025 3616 c-240 -51 -437 -161 -592 -332 -40 -43 -73 -82 -73 -86 0
-4 182 -8 405 -10 l405 -3 295 -295 c272 -273 295 -298 295 -330 0 -32 -23
-57 -295 -330 l-295 -295 -405 -3 c-223 -2 -405 -6 -405 -10 0 -4 33 -43 73
-86 162 -179 376 -294 623 -336 116 -20 339 -8 449 24 277 82 506 258 645 496
22 38 49 74 60 80 12 6 164 10 409 10 l391 0 0 450 0 450 -391 0 c-245 0 -397
4 -409 10 -11 6 -38 42 -60 80 -139 238 -367 414 -645 496 -79 23 -111 27
-255 30 -107 2 -186 -2 -225 -10z"/>
</g>
</svg>
