<?xml version="1.0" standalone="no"?>
<!DOCTYPE svg PUBLIC "-//W3C//DTD SVG 20010904//EN"
 "http://www.w3.org/TR/2001/REC-SVG-20010904/DTD/svg10.dtd">
<svg version="1.0" xmlns="http://www.w3.org/2000/svg"
 width="512.000000pt" height="512.000000pt" viewBox="0 0 512.000000 512.000000"
 preserveAspectRatio="xMidYMid meet">

<g transform="translate(0.000000,512.000000) scale(0.100000,-0.100000)"
fill="#000000" stroke="none">
<path d="M1845 5109 c-257 -38 -484 -212 -585 -449 -53 -127 -53 -126 -57
-597 l-4 -443 -88 0 c-170 0 -282 -40 -377 -134 -94 -95 -134 -207 -134 -377
l0 -89 -240 0 c-222 0 -244 -2 -280 -20 -26 -13 -47 -34 -60 -60 -19 -37 -20
-58 -20 -380 0 -322 1 -343 20 -380 13 -26 34 -47 60 -60 36 -18 58 -20 280
-20 l240 0 0 -89 c0 -170 40 -282 134 -377 95 -94 207 -134 377 -134 l88 0 4
-442 c4 -472 4 -471 57 -598 62 -147 198 -296 338 -368 81 -43 189 -76 281
-87 l54 -6 -47 53 c-89 98 -125 207 -105 315 22 120 93 211 224 291 44 27 87
61 95 75 23 40 -1 73 -90 127 -134 80 -209 177 -229 297 -25 157 53 297 224
401 44 27 87 61 95 75 23 40 -1 73 -90 127 -134 80 -209 177 -229 297 -25 157
53 297 224 401 136 83 137 118 3 205 -132 85 -197 171 -223 293 -35 167 41
313 220 422 44 27 87 61 95 75 23 40 -1 73 -90 127 -134 80 -209 177 -229 297
-25 157 53 297 224 401 44 27 87 61 95 75 23 40 -1 73 -90 127 -91 54 -160
121 -193 186 -31 62 -39 101 -39 180 1 74 38 162 97 232 20 23 35 41 33 41 -2
-1 -30 -5 -63 -10z m-645 -2549 l0 -760 -90 0 c-112 0 -159 20 -190 80 -19 38
-20 58 -20 680 0 622 1 642 20 680 31 60 75 79 188 80 l92 0 0 -760z"/>
<path d="M2214 4988 c-72 -73 -134 -141 -137 -150 -9 -25 34 -71 100 -108 84
-48 158 -123 196 -199 28 -58 32 -75 32 -151 0 -76 -3 -93 -33 -152 -37 -75
-109 -148 -196 -198 -65 -37 -108 -83 -99 -108 10 -30 45 -61 102 -93 82 -47
157 -122 194 -198 28 -58 32 -75 32 -151 0 -76 -3 -93 -33 -152 -37 -75 -109
-148 -196 -198 -65 -37 -108 -83 -99 -108 10 -30 46 -62 103 -95 77 -44 153
-124 192 -204 29 -61 32 -77 33 -158 0 -82 -3 -96 -33 -157 -37 -75 -109 -148
-196 -198 -65 -37 -108 -83 -99 -108 10 -30 45 -61 102 -93 82 -47 157 -122
194 -198 28 -58 32 -75 32 -151 0 -76 -3 -93 -33 -152 -37 -75 -109 -148 -196
-198 -65 -37 -108 -83 -99 -108 10 -30 45 -61 102 -93 82 -47 157 -122 194
-198 28 -58 32 -75 32 -151 0 -76 -3 -93 -33 -152 -37 -75 -109 -148 -196
-198 -65 -37 -108 -83 -99 -108 3 -9 69 -81 147 -159 l141 -143 243 0 244 0
-47 52 c-88 98 -124 207 -104 315 22 120 93 211 224 291 44 27 87 61 95 75 23
40 -1 73 -90 127 -134 80 -209 177 -229 297 -25 157 53 297 224 401 44 27 87
61 95 75 23 40 -1 73 -90 127 -134 80 -209 177 -229 297 -25 157 53 297 224
401 136 83 137 118 3 205 -132 85 -197 171 -223 293 -35 167 41 313 220 422
44 27 87 61 95 75 23 40 -1 73 -90 127 -134 80 -209 177 -229 297 -25 157 53
297 224 401 44 27 87 61 95 75 23 40 -1 73 -90 127 -91 54 -160 121 -193 186
-31 62 -39 101 -39 180 1 74 38 162 97 232 l37 42 -244 0 -243 0 -131 -132z"/>
<path d="M3129 4983 c-70 -70 -129 -136 -132 -145 -9 -25 34 -71 100 -108 84
-48 158 -123 196 -199 28 -58 32 -75 32 -151 0 -76 -3 -93 -33 -152 -37 -75
-109 -148 -196 -198 -65 -37 -108 -83 -99 -108 10 -30 45 -61 102 -93 82 -47
157 -122 194 -198 28 -58 32 -75 32 -151 0 -76 -3 -93 -33 -152 -37 -75 -109
-148 -196 -198 -65 -37 -108 -83 -99 -108 10 -30 46 -62 103 -95 77 -44 153
-124 192 -204 29 -61 32 -77 33 -158 0 -82 -3 -96 -33 -157 -37 -75 -109 -148
-196 -198 -65 -37 -108 -83 -99 -108 10 -30 45 -61 102 -93 82 -47 157 -122
194 -198 28 -58 32 -75 32 -151 0 -76 -3 -93 -33 -152 -37 -75 -109 -148 -196
-198 -65 -37 -108 -83 -99 -108 10 -30 45 -61 102 -93 82 -47 157 -122 194
-198 28 -58 32 -75 32 -151 0 -76 -3 -93 -33 -152 -37 -75 -109 -148 -196
-198 -65 -37 -106 -82 -99 -108 2 -10 66 -81 142 -156 l138 -138 69 17 c144
36 269 110 371 218 77 83 126 165 166 282 l32 90 3 443 3 442 88 0 c170 0 282
40 377 134 94 95 134 207 134 377 l0 89 240 0 c222 0 244 2 280 20 26 13 47
34 60 60 19 37 20 58 20 380 0 322 -1 343 -20 380 -13 26 -34 47 -60 60 -36
18 -58 20 -280 20 l-240 0 0 89 c0 170 -40 282 -134 377 -95 94 -207 134 -377
134 l-88 0 -3 443 c-4 430 -4 444 -27 512 -42 129 -99 223 -186 311 -117 118
-259 194 -410 218 l-40 7 -126 -128z m1011 -1683 c26 -13 47 -34 60 -60 19
-38 20 -58 20 -680 0 -622 -1 -642 -20 -680 -31 -60 -78 -80 -190 -80 l-90 0
0 760 0 760 90 0 c71 0 99 -4 130 -20z"/>
<path d="M79 4798 c-69 -39 -97 -124 -63 -191 9 -18 96 -112 192 -209 l176
-178 -132 0 c-113 0 -139 -3 -172 -20 -45 -23 -80 -80 -80 -130 0 -50 35 -107
80 -130 37 -19 58 -20 371 -20 319 0 333 1 369 21 21 12 47 38 59 59 20 36 21
50 21 369 0 313 -1 334 -20 371 -23 45 -80 80 -130 80 -50 0 -107 -35 -130
-80 -17 -33 -20 -59 -20 -172 l0 -132 -177 176 c-98 96 -192 183 -210 192 -43
22 -91 20 -134 -6z"/>
<path d="M4299 1178 c-20 -11 -46 -38 -58 -58 -20 -36 -21 -51 -21 -369 0
-313 1 -334 20 -371 23 -45 80 -80 130 -80 50 0 107 35 130 80 17 33 20 59 20
172 l0 132 178 -176 c182 -180 218 -208 273 -208 72 0 149 77 149 149 0 55
-28 91 -208 274 l-176 177 132 0 c113 0 139 3 172 20 45 23 80 80 80 130 0 50
-35 107 -80 130 -37 19 -58 20 -372 20 -320 0 -334 -1 -369 -22z"/>
</g>
</svg>
